# xmcd
#
# Track frame offsets:
#	150
#	33530
#	55768
#	75515
#	95313
#	119980
#	145670
#	165335
#	182643
#	211510
#
# Disc length: 3161 seconds
#
# Revision: 2752568
# Processed by: cddbd v1.5.2PL0 Copyright (c) Steve Scherf et al.
# Submitted via: EZCDAudioConverter 8.0.2.1
#
DISCID=7a0c570a
DTITLE=Ngọc Sơn - Tạ Từ Trong Đêm
DYEAR=1992
DGENRE=
TTITLE0=Tạ Từ Trong Đêm
TTITLE1=Qua cơn mê
TTITLE2=Bỏ phố lên rừng
TTITLE3=Yêu người như thế đó
TTITLE4=Khoảng trời tôi yêu
TTITLE5=Sầu lẻ bóng
TTITLE6=Tàu về quê hương
TTITLE7=Một chuyến bay đêm
TTITLE8=Mưa trên phố Huế
TTITLE9=Những ngày xưa thân ái
EXTD=
EXTT0=
EXTT1=
EXTT2=
EXTT3=
EXTT4=
EXTT5=
EXTT6=
EXTT7=
EXTT8=
EXTT9=
PLAYORDER=
